<?xml version="1.0" standalone="no"?>
<!DOCTYPE svg PUBLIC "-//W3C//DTD SVG 20010904//EN"
 "http://www.w3.org/TR/2001/REC-SVG-20010904/DTD/svg10.dtd">
<svg version="1.0" xmlns="http://www.w3.org/2000/svg"
 width="703.000000pt" height="703.000000pt" viewBox="0 0 703.000000 703.000000"
 preserveAspectRatio="xMidYMid meet">
<metadata>
Created by potrace 1.11, written by Peter Selinger 2001-2013
</metadata>
<g transform="translate(0.000000,703.000000) scale(0.100000,-0.100000)"
fill="#000000" stroke="none">
<path d="M1589 7026 c-2 -2 -31 -7 -64 -10 -63 -7 -205 -35 -218 -43 -4 -2
-19 -6 -33 -9 -64 -12 -366 -140 -384 -163 -3 -3 -22 -15 -43 -26 -96 -50
-305 -224 -402 -336 -80 -92 -220 -296 -227 -331 -2 -7 -6 -15 -10 -18 -10 -8
-76 -155 -84 -187 -4 -15 -10 -32 -14 -38 -9 -12 -29 -72 -35 -105 -2 -12 -11
-46 -19 -74 -9 -29 -18 -77 -22 -107 -3 -29 -8 -57 -10 -61 -2 -3 -7 -50 -11
-105 -8 -125 -8 -3648 0 -3768 31 -432 230 -856 536 -1139 24 -23 48 -40 53
-38 5 1 7 -1 4 -6 -6 -9 2 -17 91 -85 265 -203 600 -330 933 -354 99 -7 3716
-7 3790 0 36 4 75 9 87 11 11 2 43 8 70 11 140 20 483 139 483 167 0 5 4 7 8
4 10 -6 186 99 241 142 18 15 47 37 65 50 17 13 30 28 28 33 -1 6 1 8 6 5 12
-7 179 163 249 254 210 275 334 596 360 935 7 98 7 3671 -1 3775 -3 47 -8 96
-11 110 -3 14 -8 48 -11 75 -4 28 -9 55 -13 60 -4 6 -8 24 -10 40 -5 54 -72
238 -126 350 -115 237 -289 455 -484 605 -18 14 -42 33 -54 43 -43 36 -201
130 -291 172 -156 73 -307 119 -491 149 -77 12 -368 15 -2011 15 -1056 1
-1923 -1 -1925 -3z"/>
</g>
</svg>
